# Blender v2.78 (sub 0) OBJ File: ''
# www.blender.org
mtllib figure.mtl
o figure
v -0.630000 0.300000 0.804390
v -0.567000 0.000000 -0.338610
v -0.630000 -0.000000 0.804390
v 0.000000 0.300000 -0.788610
v 0.567000 0.000000 -0.338610
v 0.000000 0.000000 -0.788610
v 0.567000 0.300000 -0.338610
v 0.630000 -0.000000 0.804390
v 0.630000 0.300000 0.804390
v -0.567000 0.300000 -0.338610
vt 0.5701 0.0052
vt 0.6658 0.4103
vt 0.6658 0.0052
vt 0.7710 0.4107
vt 0.5701 0.5063
vt 0.7710 0.5063
vt 0.6661 0.4103
vt 0.7618 0.0052
vt 0.7618 0.4103
vt 0.6524 0.9687
vt 0.7481 0.5221
vt 0.7481 0.9687
vt 0.1646 0.4294
vt 0.5697 0.4518
vt 0.5697 0.0052
vt 0.1646 0.4745
vt 0.5697 0.4522
vt 0.5697 0.8988
vt 0.9720 0.4107
vt 0.9720 0.5063
vt 0.5701 0.4103
vt 0.5701 0.4107
vt 0.6661 0.0052
vt 0.6524 0.5221
vt 0.1646 0.0275
vt 0.0051 0.2284
vt 0.1646 0.8764
vt 0.0051 0.6754
vn -0.9985 0.0000 -0.0550
vn 0.6217 0.0000 -0.7833
vn 0.9985 0.0000 -0.0550
vn 0.0000 -0.0000 1.0000
vn 0.0000 -1.0000 -0.0000
vn 0.0000 1.0000 0.0000
vn -0.6217 0.0000 -0.7833
usemtl Material.001
s 1
f 1/1/1 2/2/1 3/3/1
f 4/4/2 5/5/2 6/6/2
f 7/7/3 8/8/3 5/9/3
f 9/10/4 3/11/4 8/12/4
f 5/13/5 8/14/5 3/15/5
f 10/16/6 1/17/6 9/18/6
f 10/19/7 6/6/7 2/20/7
f 1/1/1 10/21/1 2/2/1
f 4/4/2 7/22/2 5/5/2
f 7/7/3 9/23/3 8/8/3
f 9/10/4 1/24/4 3/11/4
f 3/15/5 2/25/5 5/13/5
f 6/26/5 5/13/5 2/25/5
f 9/18/6 7/27/6 10/16/6
f 4/28/6 10/16/6 7/27/6
f 10/19/7 4/4/7 6/6/7
