# Blender v2.79 (sub 0) OBJ File: ''
# www.blender.org
v -0.288750 0.035000 -0.291644
v -0.288750 0.017500 -0.315000
v -0.288750 0.017500 -0.291644
v 0.265913 0.035000 -0.315000
v 0.288750 0.017500 -0.315000
v 0.265913 0.017500 -0.315000
v 0.288750 0.035000 0.291644
v 0.288750 0.017500 0.315000
v 0.288750 0.017500 0.291644
v -0.265913 0.035000 0.315000
v -0.288750 0.017500 0.315000
v -0.265913 0.017500 0.315000
v -0.265913 0.000000 -0.258950
v -0.265913 0.000000 -0.291644
v -0.265913 0.014000 -0.258950
v -0.265913 0.017500 -0.315000
v -0.288750 0.000000 -0.315000
v 0.288750 0.035000 -0.315000
v 0.288750 0.017500 -0.291644
v 0.288750 0.035000 0.258950
v 0.288750 0.017500 0.258950
v -0.288750 0.035000 0.315000
v -0.288750 0.017500 0.291644
v -0.288750 0.035000 -0.258950
v -0.288750 0.017500 -0.258950
v -0.265913 0.017500 0.291644
v -0.265913 0.014000 0.258950
v -0.265913 0.017500 0.258950
v 0.288750 0.014000 -0.258950
v 0.288750 0.017500 -0.258950
v -0.233825 0.014000 0.315000
v -0.233825 0.017500 0.315000
v 0.288750 -0.000000 0.291644
v 0.288750 0.035000 0.315000
v 0.265913 0.017500 0.315000
v -0.233825 0.035000 0.315000
v -0.288750 0.035000 -0.315000
v 0.233825 0.035000 -0.315000
v 0.233825 0.017500 -0.315000
v -0.265913 0.035000 -0.315000
v -0.233825 0.017500 -0.315000
v -0.233825 0.035000 -0.315000
v 0.265913 0.035000 0.315000
v 0.233825 0.017500 0.315000
v 0.233825 0.035000 0.315000
v -0.233825 0.014000 -0.291644
v -0.265913 0.017500 -0.291644
v 0.288750 0.035000 -0.258950
v 0.265913 0.000000 -0.315000
v -0.233825 -0.000000 0.315000
v -0.265913 -0.000000 0.315000
v -0.233825 0.000000 -0.291644
v 0.233825 0.014000 0.315000
v -0.288750 0.035000 0.291644
v -0.288750 0.017500 0.258950
v -0.288750 0.035000 0.258950
v 0.288750 0.035000 -0.291644
v 0.265913 0.017500 -0.291644
v 0.265913 0.014000 -0.258950
v 0.265913 0.017500 -0.258950
v 0.265913 0.017500 0.258950
v 0.233825 0.017500 0.291644
v 0.265913 -0.000000 0.315000
v 0.265913 -0.000000 0.291644
v 0.288750 0.000000 -0.315000
v 0.265913 0.000000 -0.291644
v 0.265913 -0.000000 0.258950
v -0.265913 -0.000000 0.258950
v -0.288750 -0.000000 0.291644
v -0.288750 -0.000000 0.258950
v -0.265913 0.000000 -0.315000
v -0.288750 0.000000 -0.291644
v 0.233825 0.000000 -0.291644
v 0.233825 0.000000 -0.315000
v -0.265913 -0.000000 0.291644
v -0.288750 -0.000000 0.315000
v 0.233825 -0.000000 0.315000
v 0.233825 -0.000000 0.291644
v -0.233825 -0.000000 0.291644
v -0.233825 0.000000 -0.315000
v -0.288750 0.000000 -0.258950
v 0.288750 0.000000 -0.258950
v 0.265913 0.000000 -0.258950
v 0.265913 0.014000 0.258950
v 0.233825 0.014000 -0.315000
v 0.288750 0.000000 -0.291644
v 0.233825 0.014000 0.291644
v 0.265913 0.017500 0.291644
v -0.233825 0.014000 -0.315000
v -0.288750 0.014000 -0.258950
v 0.288750 -0.000000 0.315000
v -0.233825 0.014000 0.291644
v -0.233825 0.017500 0.291644
v -0.288750 0.014000 0.258950
v -0.233825 0.017500 -0.291644
v 0.233825 0.014000 -0.291644
v 0.233825 0.017500 -0.291644
v 0.288750 0.014000 0.258950
v -0.265913 0.017500 -0.258950
v 0.288750 -0.000000 0.258950
vt 0.878100 0.167900
vt 0.908500 0.145100
vt 0.878100 0.145100
vt 0.852400 0.055700
vt 0.882200 0.032900
vt 0.852400 0.032900
vt 0.118000 0.167900
vt 0.087600 0.145100
vt 0.118000 0.145100
vt 0.159400 0.055700
vt 0.129600 0.032900
vt 0.159400 0.032900
vt 0.771900 0.099000
vt 0.805900 0.099000
vt 0.771900 0.113500
vt 0.159400 0.032900
vt 0.129600 0.010100
vt 0.129600 0.032900
vt 0.908500 0.167900
vt 0.878100 0.145100
vt 0.908500 0.145100
vt 0.160600 0.167900
vt 0.160600 0.145100
vt 0.087600 0.167900
vt 0.118000 0.145100
vt 0.087600 0.145100
vt 0.835500 0.167900
vt 0.835500 0.145100
vt 0.197900 0.117200
vt 0.232000 0.113500
vt 0.232000 0.117200
vt 0.835500 0.140500
vt 0.835500 0.145100
vt 0.201200 0.028300
vt 0.201200 0.032900
vt 0.118000 0.122300
vt 0.882200 0.055700
vt 0.852400 0.032900
vt 0.882200 0.032900
vt 0.201200 0.055700
vt 0.129600 0.055700
vt 0.810600 0.055700
vt 0.810600 0.032900
vt 0.159400 0.055700
vt 0.201200 0.032900
vt 0.201200 0.055700
vt 0.852400 0.055700
vt 0.810600 0.032900
vt 0.810600 0.055700
vt 0.302700 0.085500
vt 0.274900 0.088600
vt 0.274900 0.073400
vt 0.033800 0.897500
vt 0.726000 0.276800
vt 0.726000 0.897500
vt 0.852400 0.010100
vt 0.201200 0.010100
vt 0.159400 0.010100
vt 0.302700 0.073400
vt 0.810600 0.028300
vt 0.118000 0.167900
vt 0.160600 0.145100
vt 0.160600 0.167900
vt 0.878100 0.167900
vt 0.835500 0.167900
vt 0.805900 0.117200
vt 0.771900 0.113500
vt 0.771900 0.117200
vt 0.983200 0.559800
vt 0.969300 0.574000
vt 0.752200 0.559800
vt 0.993200 0.574000
vt 0.983200 0.584100
vt 0.983200 0.574000
vt 0.993200 0.310500
vt 0.983200 0.320600
vt 0.983200 0.310500
vt 0.983200 0.559800
vt 0.752200 0.559800
vt 0.742300 0.574000
vt 0.742300 0.559800
vt 0.752200 0.310500
vt 0.742300 0.320600
vt 0.742300 0.310500
vt 0.969300 0.320600
vt 0.969300 0.310500
vt 0.752200 0.574000
vt 0.742300 0.584100
vt 0.969300 0.584100
vt 0.969300 0.574000
vt 0.766200 0.574000
vt 0.752200 0.584100
vt 0.766200 0.310500
vt 0.752200 0.320600
vt 0.742300 0.334800
vt 0.993200 0.334800
vt 0.983200 0.334800
vt 0.197900 0.099000
vt 0.232000 0.113500
vt 0.232000 0.099000
vt 0.810600 0.010100
vt 0.810600 0.028300
vt 0.878100 0.122300
vt 0.835500 0.122300
vt 0.709000 0.085500
vt 0.736900 0.088600
vt 0.736900 0.073400
vt 0.908500 0.122300
vt 0.159400 0.010100
vt 0.201200 0.028300
vt 0.201200 0.010100
vt 0.274900 0.073400
vt 0.255000 0.085500
vt 0.255000 0.073400
vt 0.805900 0.117200
vt 0.882200 0.010100
vt 0.302700 0.085500
vt 0.274900 0.088600
vt 0.302700 0.088600
vt 0.878100 0.122300
vt 0.835500 0.140500
vt 0.835500 0.122300
vt 0.160600 0.140500
vt 0.087600 0.122300
vt 0.197900 0.117200
vt 0.232000 0.117200
vt 0.969300 0.574000
vt 0.766200 0.584100
vt 0.766200 0.574000
vt 0.969300 0.310500
vt 0.766200 0.320600
vt 0.766200 0.310500
vt 0.752200 0.334800
vt 0.742300 0.559800
vt 0.742300 0.334800
vt 0.993200 0.334800
vt 0.983200 0.559800
vt 0.983200 0.334800
vt 0.302700 0.088600
vt 0.709000 0.085500
vt 0.709000 0.088600
vt 0.160600 0.140500
vt 0.709000 0.073400
vt 0.736900 0.088600
vt 0.197900 0.099000
vt 0.232000 0.099000
vt 0.709000 0.088600
vt 0.771900 0.117200
vt 0.830300 0.099000
vt 0.805900 0.113500
vt 0.805900 0.099000
vt 0.709000 0.073400
vt 0.736900 0.073400
vt 0.805900 0.113500
vt 0.830300 0.099000
vt 0.805900 0.099000
vt 0.805900 0.099000
vt 0.771900 0.099000
vt 0.756700 0.073400
vt 0.736900 0.085500
vt 0.736900 0.073400
vt 0.160600 0.122300
vt 0.736900 0.085500
vt 0.756700 0.073400
vt 0.736900 0.073400
vt 0.852400 0.010100
vt 0.810600 0.010100
vt 0.173600 0.099000
vt 0.197900 0.113500
vt 0.197900 0.099000
vt 0.274900 0.073400
vt 0.302700 0.073400
vt 0.173600 0.099000
vt 0.197900 0.113500
vt 0.173600 0.113500
vt 0.118000 0.122300
vt 0.160600 0.122300
vt 0.274900 0.073400
vt 0.255000 0.085500
vt 0.274900 0.085500
vt 0.908500 0.167900
vt 0.882200 0.055700
vt 0.087600 0.167900
vt 0.129600 0.055700
vt 0.087600 0.122300
vt 0.033800 0.964700
vt 0.033800 0.936700
vt 0.061200 0.964700
vt 0.033800 0.276800
vt 0.033800 0.237600
vt 0.099700 0.209600
vt 0.099700 0.964700
vt 0.061200 0.209600
vt 0.033800 0.209600
vt 0.726000 0.964700
vt 0.698600 0.964700
vt 0.726000 0.936700
vt 0.660200 0.964700
vt 0.660200 0.209600
vt 0.698600 0.209600
vt 0.726000 0.209600
vt 0.726000 0.237600
vt 0.882200 0.010100
vt 0.752200 0.334800
vt 0.752200 0.320600
vt 0.766200 0.320600
vt 0.969300 0.320600
vt 0.983200 0.320600
vt 0.983200 0.334800
vt 0.766200 0.574000
vt 0.752200 0.574000
vt 0.983200 0.574000
vt 0.993200 0.584100
vt 0.993200 0.320600
vt 0.993200 0.559800
vt 0.766200 0.584100
vt 0.766200 0.320600
vt 0.752200 0.334800
vt 0.129600 0.010100
vt 0.274900 0.085500
vt 0.908500 0.122300
vt 0.969300 0.584100
vt 0.969300 0.320600
vt 0.752200 0.559800
vt 0.993200 0.559800
vt 0.830300 0.113500
vt 0.830300 0.113500
vt 0.756700 0.085500
vt 0.756700 0.085500
vt 0.173600 0.113500
vt 0.197900 0.099000
vt 0.255000 0.073400
vn -1.0000 0.0000 0.0000
vn 0.0000 0.0000 -1.0000
vn 1.0000 0.0000 0.0000
vn 0.0000 0.0000 1.0000
vn 0.0000 1.0000 0.0000
vn 0.0000 -1.0000 -0.0000
s 1
f 1/1/1 2/2/1 3/3/1
f 4/4/2 5/5/2 6/6/2
f 7/7/3 8/8/3 9/9/3
f 10/10/4 11/11/4 12/12/4
f 13/13/3 14/14/3 15/15/3
f 16/16/2 17/17/2 2/18/2
f 18/19/3 19/20/3 5/21/3
f 20/22/3 9/9/3 21/23/3
f 22/24/1 23/25/1 11/26/1
f 24/27/1 3/3/1 25/28/1
f 26/29/3 27/30/3 28/31/3
f 29/32/3 19/20/3 30/33/3
f 12/12/4 31/34/4 32/35/4
f 8/8/3 33/36/3 9/9/3
f 34/37/4 35/38/4 8/39/4
f 36/40/4 12/12/4 32/35/4
f 37/41/2 16/16/2 2/18/2
f 38/42/2 6/6/2 39/43/2
f 40/44/2 41/45/2 16/16/2
f 42/46/2 39/43/2 41/45/2
f 43/47/4 44/48/4 35/38/4
f 45/49/4 32/35/4 44/48/4
f 46/50/4 47/51/4 14/52/4
f 21/23/3 29/32/3 30/33/3
f 24/53/5 20/54/5 48/55/5
f 5/5/2 49/56/2 6/6/2
f 50/57/4 31/34/4 51/58/4
f 14/52/4 52/59/4 46/50/4
f 32/35/4 53/60/4 44/48/4
f 54/61/1 55/62/1 23/25/1
f 56/63/1 25/28/1 55/62/1
f 57/64/3 30/33/3 19/20/3
f 48/65/3 21/23/3 30/33/3
f 58/66/1 59/67/1 60/68/1
f 61/69/6 62/70/6 28/71/6
f 33/72/6 63/73/6 64/74/6
f 65/75/6 66/76/6 49/77/6
f 67/78/6 33/72/6 64/74/6
f 68/79/6 69/80/6 70/81/6
f 71/82/6 72/83/6 17/84/6
f 49/77/6 73/85/6 74/86/6
f 75/87/6 76/88/6 69/80/6
f 64/74/6 77/89/6 78/90/6
f 79/91/6 51/92/6 75/87/6
f 80/93/6 14/94/6 71/82/6
f 14/94/6 81/95/6 72/83/6
f 66/76/6 82/96/6 83/97/6
f 64/98/1 84/99/1 67/100/1
f 74/101/2 85/102/2 49/56/2
f 11/11/4 51/58/4 12/12/4
f 86/103/3 29/32/3 82/104/3
f 53/60/4 35/38/4 44/48/4
f 6/6/2 85/102/2 39/43/2
f 87/105/2 88/106/2 64/107/2
f 19/20/3 65/108/3 5/21/3
f 71/109/2 89/110/2 80/111/2
f 13/112/4 90/113/4 81/114/4
f 47/115/3 15/15/3 14/14/3
f 35/38/4 91/116/4 8/39/4
f 92/117/2 26/118/2 93/119/2
f 2/2/1 72/120/1 3/3/1
f 90/121/1 72/120/1 81/122/1
f 94/123/1 23/25/1 55/62/1
f 23/25/1 76/124/1 11/26/1
f 84/99/1 88/125/1 61/126/1
f 87/127/6 31/128/6 92/129/6
f 85/130/6 46/131/6 89/132/6
f 15/133/6 94/134/6 90/135/6
f 29/136/6 84/137/6 59/138/6
f 95/139/4 96/140/4 97/141/4
f 9/9/3 98/142/3 21/23/3
f 16/16/2 89/110/2 71/109/2
f 87/105/2 64/107/2 78/143/2
f 3/3/1 90/121/1 25/28/1
f 96/140/4 58/144/4 97/141/4
f 27/30/3 75/145/3 68/146/3
f 62/147/2 92/117/2 93/119/2
f 39/43/2 89/110/2 41/45/2
f 25/28/1 94/123/1 55/62/1
f 28/31/3 15/15/3 99/148/3
f 60/68/1 84/99/1 61/126/1
f 80/149/3 46/150/3 52/151/3
f 96/140/4 73/152/4 66/153/4
f 96/154/1 74/155/1 73/156/1
f 59/67/1 66/157/1 83/158/1
f 82/159/4 59/160/4 83/161/4
f 98/142/3 33/36/3 100/162/3
f 84/163/2 100/164/2 67/165/2
f 63/166/4 53/60/4 77/167/4
f 77/168/1 87/169/1 78/170/1
f 75/171/2 92/117/2 79/172/2
f 50/173/3 92/174/3 31/175/3
f 69/176/1 94/123/1 70/177/1
f 68/178/2 94/179/2 27/180/2
f 1/1/1 37/181/1 2/2/1
f 4/4/2 18/182/2 5/5/2
f 7/7/3 34/183/3 8/8/3
f 10/10/4 22/184/4 11/11/4
f 16/16/2 71/109/2 17/17/2
f 18/19/3 57/64/3 19/20/3
f 20/22/3 7/7/3 9/9/3
f 22/24/1 54/61/1 23/25/1
f 24/27/1 1/1/1 3/3/1
f 26/29/3 75/145/3 27/30/3
f 29/32/3 86/103/3 19/20/3
f 12/12/4 51/58/4 31/34/4
f 8/8/3 91/185/3 33/36/3
f 34/37/4 43/47/4 35/38/4
f 36/40/4 10/10/4 12/12/4
f 37/41/2 40/44/2 16/16/2
f 38/42/2 4/4/2 6/6/2
f 40/44/2 42/46/2 41/45/2
f 42/46/2 38/42/2 39/43/2
f 43/47/4 45/49/4 44/48/4
f 45/49/4 36/40/4 32/35/4
f 46/50/4 95/139/4 47/51/4
f 21/23/3 98/142/3 29/32/3
f 37/186/5 1/187/5 40/188/5
f 56/189/5 54/190/5 36/191/5
f 40/188/5 1/187/5 42/192/5
f 24/53/5 56/189/5 20/54/5
f 10/193/5 36/191/5 54/190/5
f 54/190/5 22/194/5 10/193/5
f 42/192/5 1/187/5 24/53/5
f 18/195/5 4/196/5 57/197/5
f 38/198/5 42/192/5 24/53/5
f 56/189/5 36/191/5 45/199/5
f 43/200/5 34/201/5 7/202/5
f 56/189/5 45/199/5 20/54/5
f 4/196/5 38/198/5 57/197/5
f 48/55/5 57/197/5 38/198/5
f 7/202/5 20/54/5 45/199/5
f 45/199/5 43/200/5 7/202/5
f 48/55/5 38/198/5 24/53/5
f 5/5/2 65/203/2 49/56/2
f 32/35/4 31/34/4 53/60/4
f 54/61/1 56/63/1 55/62/1
f 56/63/1 24/27/1 25/28/1
f 57/64/3 48/65/3 30/33/3
f 48/65/3 20/22/3 21/23/3
f 58/66/1 66/157/1 59/67/1
f 99/204/6 47/205/6 95/206/6
f 97/207/6 58/208/6 60/209/6
f 99/204/6 95/206/6 97/207/6
f 93/210/6 26/211/6 28/71/6
f 28/71/6 99/204/6 60/209/6
f 97/207/6 60/209/6 99/204/6
f 61/69/6 88/212/6 62/70/6
f 62/70/6 93/210/6 28/71/6
f 28/71/6 60/209/6 61/69/6
f 33/72/6 91/213/6 63/73/6
f 65/75/6 86/214/6 66/76/6
f 67/78/6 100/215/6 33/72/6
f 68/79/6 75/87/6 69/80/6
f 71/82/6 14/94/6 72/83/6
f 49/77/6 66/76/6 73/85/6
f 75/87/6 51/92/6 76/88/6
f 64/74/6 63/73/6 77/89/6
f 79/91/6 50/216/6 51/92/6
f 80/93/6 52/217/6 14/94/6
f 14/94/6 13/218/6 81/95/6
f 66/76/6 86/214/6 82/96/6
f 11/11/4 76/219/4 51/58/4
f 53/60/4 63/166/4 35/38/4
f 6/6/2 49/56/2 85/102/2
f 87/105/2 62/147/2 88/106/2
f 19/20/3 86/103/3 65/108/3
f 13/112/4 15/220/4 90/113/4
f 47/115/3 99/148/3 15/15/3
f 35/38/4 63/166/4 91/116/4
f 92/117/2 75/171/2 26/118/2
f 2/2/1 17/221/1 72/120/1
f 94/123/1 69/176/1 23/25/1
f 23/25/1 69/176/1 76/124/1
f 84/99/1 64/98/1 88/125/1
f 87/127/6 53/222/6 31/128/6
f 85/130/6 96/223/6 46/131/6
f 15/133/6 27/224/6 94/134/6
f 29/136/6 98/225/6 84/137/6
f 95/139/4 46/50/4 96/140/4
f 9/9/3 33/36/3 98/142/3
f 16/16/2 41/45/2 89/110/2
f 3/3/1 72/120/1 90/121/1
f 96/140/4 66/153/4 58/144/4
f 62/147/2 87/105/2 92/117/2
f 39/43/2 85/102/2 89/110/2
f 25/28/1 90/121/1 94/123/1
f 28/31/3 27/30/3 15/15/3
f 60/68/1 59/67/1 84/99/1
f 80/149/3 89/226/3 46/150/3
f 96/154/1 85/227/1 74/155/1
f 82/159/4 29/228/4 59/160/4
f 84/163/2 98/229/2 100/164/2
f 77/168/1 53/230/1 87/169/1
f 50/173/3 79/231/3 92/174/3
f 68/178/2 70/232/2 94/179/2
