# Blender v2.78 (sub 0) OBJ File: 'table.blend'
# www.blender.org
mtllib table.mtl
v -25.000000 -0.286946 25.000000
v -24.750000 0.000000 24.750000
v -25.000000 -0.286946 -25.000000
v -24.750000 0.000000 -24.750000
v 25.000000 -0.286946 25.000000
v 24.750000 0.000000 24.750000
v 25.000000 -0.286946 -25.000000
v 24.750000 0.000000 -24.750000
v -25.000000 -1.631052 -25.000000
v -25.000000 -1.631052 25.000000
v 25.000000 -1.631052 -25.000000
v 25.000000 -1.631052 25.000000
v -22.750000 -1.806254 -22.750000
v -22.750000 -1.806254 22.750000
v 22.750000 -1.806254 -22.750000
v 24.750000 -1.806254 24.750000
v -22.750000 -1.806254 -20.000000
v 20.000000 -1.806254 -22.750000
v 22.750000 -1.806254 -20.000000
v -20.000000 -1.806254 22.750000
v 20.000000 -1.806254 -20.000000
v 20.000000 -1.806254 22.750000
v 22.750000 -1.806254 22.750000
v 22.750000 -1.806254 20.000000
v 20.000000 -1.806254 20.000000
v 0.000000 -1.806254 24.750000
v 24.750000 -1.806254 24.750000
v 24.750000 -1.806254 0.000000
v 0.000000 -1.806254 0.000000
v 24.750000 -1.806254 0.000000
v 24.750000 -1.806254 -24.750000
v -20.000000 -1.806254 -22.750000
v -20.000000 -1.806254 -20.000000
v 0.000000 -1.806254 -24.750000
v -24.750000 -1.806254 -24.750000
v -22.750000 -1.806254 20.000000
v -20.000000 -1.806254 20.000000
v -24.750000 -1.806254 0.000000
v -24.750000 -1.806254 24.750000
v 0.000000 -1.806254 24.750000
v 0.000000 -1.806254 0.000000
v 20.000000 -11.806253 22.750000
v 22.750000 -11.806253 22.750000
v 22.750000 -11.806253 20.000000
v 20.000000 -11.806253 20.000000
v 22.750000 -11.806253 -20.000000
v 22.750000 -11.806253 -22.750000
v 20.000000 -11.806253 -22.750000
v 20.000000 -11.806253 -20.000000
v -20.000000 -11.806253 -22.750000
v -22.750000 -11.806253 -22.750000
v -22.750000 -11.806253 -20.000000
v -20.000000 -11.806253 -20.000000
v -22.750000 -11.806253 20.000000
v -22.750000 -11.806253 22.750000
v -20.000000 -11.806253 22.750000
v -20.000000 -11.806253 20.000000
vt 0.6331 0.2705
vt 0.6303 0.7512
vt 0.6303 0.2681
vt 0.5980 0.2705
vt 0.5952 0.7512
vt 0.5952 0.2681
vt 0.5278 0.2705
vt 0.5251 0.7512
vt 0.5251 0.2681
vt 0.5629 0.2705
vt 0.5601 0.7512
vt 0.5601 0.2681
vt 0.5822 0.2681
vt 0.4879 0.9903
vt 0.0097 0.5121
vt 0.4879 0.5121
vt 0.4928 0.4928
vt 0.4903 0.2512
vt 0.4928 0.0097
vt 0.6173 0.2681
vt 0.5121 0.2681
vt 0.5472 0.2681
vt 0.0000 0.0000
vt 0.0000 0.0000
vt 0.0000 0.0000
vt 0.0097 0.0097
vt 0.0121 0.2512
vt 0.0097 0.4928
vt 0.2512 0.0121
vt 0.2512 0.4903
vt 0.7971 0.1256
vt 0.7705 0.2222
vt 0.7705 0.1256
vt 0.7442 0.7126
vt 0.7708 0.6159
vt 0.7708 0.7126
vt 0.7442 0.5966
vt 0.7708 0.5000
vt 0.7708 0.5966
vt 0.6790 0.3841
vt 0.6524 0.4807
vt 0.6524 0.3841
vt 0.0000 0.0000
vt 0.0000 0.0000
vt 0.0000 0.0000
vt 0.0000 0.0000
vt 0.0000 0.0000
vt 0.7319 0.0556
vt 0.7512 0.0097
vt 0.7512 0.2488
vt 0.7053 0.0290
vt 0.7319 0.0290
vt 0.7053 0.0556
vt 0.5121 0.2488
vt 0.5121 0.0097
vt 0.0580 0.0314
vt 0.0121 0.0121
vt 0.0314 0.0580
vt 0.0314 0.0314
vt 0.0580 0.0580
vt 0.2512 0.2512
vt 0.0314 0.4444
vt 0.0121 0.4903
vt 0.0580 0.4710
vt 0.0314 0.4710
vt 0.0580 0.4444
vt 0.4444 0.4710
vt 0.4903 0.4903
vt 0.4710 0.4444
vt 0.4710 0.4710
vt 0.4444 0.4444
vt 0.6524 0.7319
vt 0.6790 0.7585
vt 0.6524 0.7585
vt 0.6983 0.7319
vt 0.7249 0.7585
vt 0.6983 0.7585
vt 0.7442 0.4541
vt 0.7708 0.4807
vt 0.7442 0.4807
vt 0.7442 0.4082
vt 0.7708 0.4348
vt 0.7442 0.4348
vt 0.8167 0.2681
vt 0.7901 0.3647
vt 0.7901 0.2681
vt 0.6790 0.2681
vt 0.6524 0.3647
vt 0.6524 0.2681
vt 0.7249 0.2681
vt 0.6983 0.3647
vt 0.6983 0.2681
vt 0.6790 0.6159
vt 0.6524 0.7126
vt 0.6524 0.6159
vt 0.7249 0.3841
vt 0.6983 0.4807
vt 0.6983 0.3841
vt 0.6790 0.5000
vt 0.6524 0.5966
vt 0.6524 0.5000
vt 0.7901 0.4807
vt 0.8167 0.3841
vt 0.8167 0.4807
vt 0.7705 0.1063
vt 0.7971 0.0097
vt 0.7971 0.1063
vt 0.7249 0.5000
vt 0.6983 0.5966
vt 0.6983 0.5000
vt 0.7708 0.2681
vt 0.7442 0.3647
vt 0.7442 0.2681
vt 0.7249 0.6159
vt 0.6983 0.7126
vt 0.6983 0.6159
vt 0.7901 0.5966
vt 0.8167 0.5000
vt 0.8167 0.5966
vt 0.6331 0.7488
vt 0.5980 0.7488
vt 0.5278 0.7488
vt 0.5629 0.7488
vt 0.5822 0.7512
vt 0.0097 0.9903
vt 0.4903 0.0121
vt 0.6173 0.7512
vt 0.5121 0.7512
vt 0.5472 0.7512
vt 0.7971 0.2222
vt 0.7442 0.6159
vt 0.7442 0.5000
vt 0.6790 0.4807
vt 0.6790 0.7319
vt 0.7249 0.7319
vt 0.7708 0.4541
vt 0.7708 0.4082
vt 0.8167 0.3647
vt 0.6790 0.3647
vt 0.7249 0.3647
vt 0.6790 0.7126
vt 0.7249 0.4807
vt 0.6790 0.5966
vt 0.7901 0.3841
vt 0.7705 0.0097
vt 0.7249 0.5966
vt 0.7708 0.3647
vt 0.7249 0.7126
vt 0.7901 0.5000
vn -0.7540 0.6569 0.0000
vn 0.0000 0.6569 -0.7540
vn 0.7540 0.6569 0.0000
vn 0.0000 0.6569 0.7540
vn 0.0000 0.0000 -1.0000
vn 0.0000 1.0000 0.0000
vn 0.0000 -0.8189 0.5739
vn -1.0000 0.0000 0.0000
vn 1.0000 0.0000 0.0000
vn 0.0000 0.0000 1.0000
vn 0.0000 -0.8189 -0.5739
vn 0.5739 -0.8189 0.0000
vn -0.5739 -0.8189 0.0000
vn 0.0000 -1.0000 -0.0000
usemtl Material.001
s off
f 2/1/1 3/2/1 1/3/1
f 4/4/2 7/5/2 3/6/2
f 8/7/3 5/8/3 7/9/3
f 6/10/4 1/11/4 5/12/4
f 7/5/5 9/13/5 3/6/5
f 4/14/6 6/15/6 8/16/6
f 10/17/7 40/18/7 12/19/7
f 3/2/8 10/20/8 1/3/8
f 5/8/9 11/21/9 7/9/9
f 1/11/10 12/22/10 5/12/10
f 16/23/10 26/24/10 27/25/10
f 11/26/11 34/27/11 9/28/11
f 12/19/12 30/29/12 11/26/12
f 9/28/13 38/30/13 10/17/13
f 32/31/5 51/32/5 13/33/5
f 23/34/9 44/35/9 24/36/9
f 19/37/9 47/38/9 15/39/9
f 22/40/10 43/41/10 23/42/10
f 40/43/10 29/44/10 26/24/10
f 30/45/10 27/25/10 28/46/10
f 41/47/10 28/46/10 29/44/10
f 22/48/14 27/49/14 26/50/14
f 24/51/14 27/49/14 23/52/14
f 25/53/14 26/50/14 29/54/14
f 25/53/14 28/55/14 24/51/14
f 19/56/14 31/57/14 30/29/14
f 18/58/14 31/57/14 15/59/14
f 21/60/14 34/27/14 18/58/14
f 21/60/14 30/29/14 41/61/14
f 32/62/14 35/63/14 34/27/14
f 17/64/14 35/63/14 13/65/14
f 33/66/14 34/27/14 41/61/14
f 33/66/14 38/30/14 17/64/14
f 36/67/14 39/68/14 38/30/14
f 20/69/14 39/68/14 14/70/14
f 37/71/14 40/18/14 20/69/14
f 37/71/14 38/30/14 41/61/14
f 57/72/14 55/73/14 54/74/14
f 50/75/14 52/76/14 51/77/14
f 47/78/14 49/79/14 48/80/14
f 44/81/14 42/82/14 45/83/14
f 15/84/5 48/85/5 18/86/5
f 36/87/8 55/88/8 14/89/8
f 25/90/8 42/91/8 22/92/8
f 13/93/8 52/94/8 17/95/8
f 18/96/8 49/97/8 21/98/8
f 14/99/10 56/100/10 20/101/10
f 24/102/5 45/103/5 25/104/5
f 33/105/9 50/106/9 32/107/9
f 21/108/10 46/109/10 19/110/10
f 20/111/9 57/112/9 37/113/9
f 17/114/10 53/115/10 33/116/10
f 37/117/5 54/118/5 36/119/5
f 2/1/1 4/120/1 3/2/1
f 4/4/2 8/121/2 7/5/2
f 8/7/3 6/122/3 5/8/3
f 6/10/4 2/123/4 1/11/4
f 7/5/5 11/124/5 9/13/5
f 4/14/6 2/125/6 6/15/6
f 16/126/7 12/19/7 40/18/7
f 10/17/7 39/68/7 40/18/7
f 3/2/8 9/127/8 10/20/8
f 5/8/9 12/128/9 11/21/9
f 1/11/10 10/129/10 12/22/10
f 16/23/10 40/43/10 26/24/10
f 35/63/11 9/28/11 34/27/11
f 11/26/11 31/57/11 34/27/11
f 31/57/12 11/26/12 30/29/12
f 12/19/12 16/126/12 30/29/12
f 39/68/13 10/17/13 38/30/13
f 9/28/13 35/63/13 38/30/13
f 32/31/5 50/130/5 51/32/5
f 23/34/9 43/131/9 44/35/9
f 19/37/9 46/132/9 47/38/9
f 22/40/10 42/133/10 43/41/10
f 40/43/10 41/47/10 29/44/10
f 30/45/10 16/23/10 27/25/10
f 41/47/10 30/45/10 28/46/10
f 22/48/14 23/52/14 27/49/14
f 24/51/14 28/55/14 27/49/14
f 25/53/14 22/48/14 26/50/14
f 25/53/14 29/54/14 28/55/14
f 19/56/14 15/59/14 31/57/14
f 18/58/14 34/27/14 31/57/14
f 21/60/14 41/61/14 34/27/14
f 21/60/14 19/56/14 30/29/14
f 32/62/14 13/65/14 35/63/14
f 17/64/14 38/30/14 35/63/14
f 33/66/14 32/62/14 34/27/14
f 33/66/14 41/61/14 38/30/14
f 36/67/14 14/70/14 39/68/14
f 20/69/14 40/18/14 39/68/14
f 37/71/14 41/61/14 40/18/14
f 37/71/14 36/67/14 38/30/14
f 57/72/14 56/134/14 55/73/14
f 50/75/14 53/135/14 52/76/14
f 47/78/14 46/136/14 49/79/14
f 44/81/14 43/137/14 42/82/14
f 15/84/5 47/138/5 48/85/5
f 36/87/8 54/139/8 55/88/8
f 25/90/8 45/140/8 42/91/8
f 13/93/8 51/141/8 52/94/8
f 18/96/8 48/142/8 49/97/8
f 14/99/10 55/143/10 56/100/10
f 24/102/5 44/144/5 45/103/5
f 33/105/9 53/145/9 50/106/9
f 21/108/10 49/146/10 46/109/10
f 20/111/9 56/147/9 57/112/9
f 17/114/10 52/148/10 53/115/10
f 37/117/5 57/149/5 54/118/5
